PathFileType	4	(X/Y/Z)	OpenSim_Sub03_CSBaseline_Gyro.trc
DataRate	CameraRate	NumFrames	NumMarkers	Units	OrigDataRate	OrigDataStartFrame	OrigNumFrames
100	100	38	8	m	100	1	9288
Frame#	Time	torso_imu_offset_imu	pelvis_imu_offset_imu	tibia_r_imu_offset_imu	femur_r_imu_offset_imu	tibia_l_imu_offset_imu	femur_l_imu_offset_imu	toes_r_imu_offset_imu	toes_l_imu_offset_imu
				X1	Y1	Z1	X2	Y2	Z2	X3	Y3	Z3	X4	Y4	Z4	X5	Y5	Z5	X6	Y6	Z6	X7	Y7	Z7	X8		Y8	Z8	

1	0	0.11156137	0.03403513	0.00074142	0.14244219	-0.01576676	0.03672412	0.05872589	-0.00409265	-0.02926852	0.15115703	-0.00198061	-0.04178383	0.04694582	0.01752201	0.00009625	0.15483802	-0.00248461	-0.04013871	0.00665958	0.00328685	-0.00118752	-0.00970930	0.01719310	0.00574677
2	0.01000000	0.11316497	0.03734133	0.00455624	0.13941543	-0.01275435	0.04125060	0.06612358	0.00829134	-0.02682805	0.15881113	0.01116809	-0.04077921	0.03552461	0.02878205	0.00513374	0.15300275	0.01166319	-0.04173971	0.00884412	0.00190175	-0.00584062	-0.01092618	0.01457459	0.00994743
3	0.02000000	0.11686461	0.03820665	0.00556332	0.13466144	-0.01677312	0.04003233	0.06850403	0.00179198	-0.02766823	0.15717126	0.01591842	-0.03971582	0.01960809	0.03250438	0.00764432	0.12543187	0.02128879	-0.04194911	0.00434351	0.00106359	0.00008792	-0.01147448	0.01171604	0.00898530
4	0.03000000	0.11637149	0.04320727	0.00556724	0.13169760	-0.02551769	0.03838388	0.07216043	0.01090591	-0.02746713	0.13518280	0.01303050	-0.03808840	0.00662728	0.03319851	0.00873556	0.10343058	0.02374819	-0.03539058	0.00425116	0.00045013	-0.00084085	-0.01029058	0.00711291	0.01065930
5	0.04000000	0.12025824	0.04871610	0.00627348	0.12389020	-0.03264349	0.03481857	0.06705585	0.00812876	-0.02741763	0.10762008	0.01085571	-0.03590677	-0.00100729	0.03164595	0.01127368	0.08159943	0.01354626	-0.03424857	0.00473377	0.00080334	0.00171439	-0.01133485	0.00066687	0.01048580
6	0.05000000	0.12443869	0.05555503	0.00457481	0.11386675	-0.03119184	0.02679701	0.05629376	0.00718675	-0.02917028	0.08737016	0.01152010	-0.03475055	-0.00586284	0.01768005	0.01247302	0.06614958	0.00881873	-0.02937727	0.00602003	0.00216443	-0.00146208	-0.01210567	-0.00157640	0.01061029
7	0.06000000	0.12178781	0.06038799	0.00403992	0.09872073	-0.03418792	0.02158135	0.04609860	0.00582766	-0.03029702	0.06952115	0.02001754	-0.03903857	0.00333029	0.01795644	0.00725171	0.06765285	0.01148053	-0.02232786	0.00520274	0.00106500	-0.00206780	-0.00919578	-0.00418578	0.01135308
8	0.07000000	0.12099315	0.06948915	0.00279238	0.08217488	-0.03524235	0.01912730	0.02987837	0.00079504	-0.03646491	0.05162263	0.01934255	-0.04020144	0.02214265	0.01749237	0.01593380	0.06301243	0.01057348	-0.00803192	0.00721368	0.00138378	-0.00222459	-0.00453570	0.00120113	0.00714397
9	0.08000000	0.11887969	0.07933733	-0.00131099	0.07222404	-0.03074971	0.01660536	0.01578877	0.00290320	-0.04167368	0.03121925	0.02211065	-0.03001266	0.03151497	0.01922386	0.01970910	0.05535193	0.01011338	-0.00158466	0.00358731	-0.00100701	-0.00229262	-0.00659710	0.00559829	0.00363073
10	0.09000000	0.11914854	0.08617204	-0.00568800	0.05640801	-0.03151196	0.01047204	0.01753875	0.00157073	-0.04478408	0.01818559	0.02860723	-0.01835617	0.02680471	0.02009953	0.01358701	0.03627227	0.00549434	0.01281837	0.00343425	0.00074298	-0.00639226	-0.00455472	0.00816841	0.00498676
11	0.10000000	0.11191016	0.09101262	-0.00646220	0.04870624	-0.03034823	0.00688891	0.02224803	0.00098080	-0.05081923	0.00408976	0.03151563	-0.01318131	0.01646817	0.01221332	0.01904522	0.02321457	0.00002254	0.01799225	0.00261985	0.00141577	-0.00359620	-0.00390596	0.01029086	0.00340986
12	0.11000000	0.10906103	0.09281398	-0.00745475	0.04341273	-0.02932595	0.00126491	0.02114674	-0.00140575	-0.05592883	-0.00569435	0.03281095	-0.00692697	0.00019399	0.01336986	0.01923476	0.02650359	-0.00067066	0.01587726	-0.00116830	-0.00065124	-0.00145914	-0.00818004	0.01181300	0.00615788
13	0.12000000	0.10246499	0.09481195	-0.01063321	0.04103303	-0.03061429	0.00787982	0.01971461	-0.00745939	-0.06295082	-0.01000655	0.03465313	-0.00211245	-0.00148983	0.02653515	0.01566763	0.02004913	-0.00649637	0.01736260	-0.00036782	-0.00048267	-0.00333226	-0.00789497	0.00487767	0.00571375
14	0.13000000	0.09825137	0.09585406	-0.01417231	0.03915446	-0.03525867	0.00550198	0.01775328	-0.00680350	-0.06671310	-0.00524649	0.03259421	0.00737778	-0.00528261	0.03044280	0.01522565	-0.00402701	-0.00480765	0.01841559	0.00026306	-0.00138868	-0.00270800	-0.00816712	0.00423973	0.00769606
15	0.14000000	0.09325784	0.09956706	-0.01279824	0.03595962	-0.03969034	0.00170072	0.02017668	-0.00412529	-0.07051145	0.00466795	0.02910202	0.01616610	0.00160187	0.02617141	0.02157511	-0.00243764	0.00956740	0.01707108	0.00217472	-0.00209157	-0.00468641	-0.00999941	0.00027346	0.00854677
16	0.15000000	0.08156925	0.09495527	-0.01195218	0.03288785	-0.04014648	0.00345374	0.02473143	-0.00337153	-0.07917167	0.01539438	0.03372846	0.02041118	0.01254294	0.02471249	0.02412802	0.00403177	0.01310480	0.01447170	0.00703192	-0.00188942	-0.01108715	-0.00486690	0.00108904	0.00937293
17	0.16000000	0.07708396	0.09260807	-0.01506548	0.03813608	-0.04573244	0.00370784	0.01627462	-0.00477974	-0.08449403	0.02476703	0.03807836	0.02362017	0.01338747	0.03016696	0.02782810	0.01087555	0.01058928	0.00991809	0.00514782	-0.00672320	-0.01297569	-0.00842680	0.00254407	0.00693536
18	0.17000000	0.07622753	0.09563991	-0.01129847	0.04047606	-0.04815004	0.00491861	0.02054862	0.00985577	-0.08680771	0.02893575	0.04674435	0.02418303	0.01650247	0.04152380	0.02680664	0.02630335	0.00760746	0.01003717	0.00312280	-0.01202415	-0.01545689	-0.00502929	-0.00259476	0.00440578
19	0.18000000	0.07408018	0.09338737	-0.01372184	0.03983472	-0.05163501	0.00860173	0.02951718	0.01328251	-0.08533082	0.02692199	0.04960468	0.03034388	0.00678311	0.04209419	0.02626668	0.03611868	0.01173176	0.00867821	-0.00001606	-0.01636587	-0.01437126	-0.00519465	-0.00013505	0.00905188
20	0.19000000	0.07295375	0.09484121	-0.01248344	0.04475911	-0.05629260	0.01262344	0.03009484	0.00351054	-0.08867880	0.02132006	0.05101342	0.02950131	0.00075664	0.03262260	0.02912400	0.03916030	0.00802207	0.00543980	-0.00185882	-0.02077388	-0.01213534	-0.00769795	-0.00134064	0.01116644
21	0.20000000	0.06883096	0.09436067	-0.01418681	0.05022200	-0.06450224	0.01654743	0.03176804	0.00588847	-0.08894311	0.02124297	0.05408114	0.01764924	0.01557358	0.02804013	0.02978672	0.04155051	0.00750024	0.00225564	-0.00349701	-0.02081040	-0.01025816	-0.00577799	-0.00811814	0.01184855
22	0.21000000	0.06792668	0.09359123	-0.01816843	0.05679087	-0.06460512	0.01782003	0.02628276	0.00130239	-0.08603654	0.02384608	0.06030943	0.00898004	0.02366576	0.02359345	0.03010916	0.03373966	0.00630449	0.00288420	-0.00469963	-0.01968259	-0.01034804	-0.00703394	-0.01017467	0.01248942
23	0.22000000	0.06393822	0.10185849	-0.01422111	0.06040801	-0.06342836	0.02211404	0.02677490	0.00190239	-0.08414942	0.02150130	0.06372851	0.00841576	0.03710660	0.02813224	0.03883708	0.02371898	0.00289183	0.00040491	-0.00518478	-0.02260858	-0.00949119	-0.00501938	-0.00924534	0.01249745
24	0.23000000	0.05912299	0.10439965	-0.01517182	0.05829550	-0.06587823	0.02216787	0.02420727	0.00063073	-0.08237994	0.02375531	0.06333866	-0.00127078	0.03593452	0.02136634	0.04025341	0.02328833	-0.00391221	0.00443895	-0.00022771	-0.01795753	-0.01199165	-0.00690928	-0.00953077	0.01291626
25	0.24000000	0.05615572	0.11007331	-0.01755542	0.06154970	-0.06363489	0.01922796	0.01853236	-0.00423715	-0.08444434	0.04143863	0.04712463	-0.00409896	0.03279764	0.01073048	0.03973197	0.02809628	0.00281809	0.00492862	0.00108041	-0.01538039	-0.01370859	-0.00759582	-0.00131422	0.01259525
26	0.25000000	0.05389173	0.11807577	-0.01814826	0.06314310	-0.06106944	0.01669887	0.01856933	-0.00557482	-0.08505554	0.05643589	0.03428793	-0.01105620	0.01000862	0.01861500	0.04014055	0.04115673	0.00375682	0.00664416	0.00464565	-0.01418101	-0.01588980	-0.00690879	-0.00284114	0.01638529
27	0.26000000	0.05094990	0.12241719	-0.01729419	0.06031750	-0.05976551	0.02081139	0.01985988	-0.00913279	-0.08470121	0.05715186	0.02891428	-0.01418542	0.01385959	0.01590628	0.03375694	0.04302456	-0.00192866	0.00677023	0.00029723	-0.01506701	-0.01289904	-0.00752754	-0.00155455	0.01264614
28	0.27000000	0.05140621	0.12264943	-0.01603347	0.05759628	-0.05922139	0.01834405	0.01803291	0.00262409	-0.08301306	0.04920034	0.03403871	-0.00782422	0.02140342	0.01688012	0.03710843	0.03835955	-0.00578676	0.01825867	-0.00149113	-0.01684644	-0.01148526	-0.00847455	-0.00072003	0.01090191
29	0.28000000	0.04975099	0.12672455	-0.01735971	0.05343501	-0.06011841	0.02121923	0.02928624	0.00851530	-0.07988598	0.03684863	0.03933955	-0.01019359	0.01753367	0.01322792	0.03988955	0.03012879	-0.01277637	0.02474236	-0.00200045	-0.01861796	-0.01007796	-0.00840460	-0.00093606	0.00965999
30	0.29000000	0.05315635	0.12710860	-0.01826920	0.04998652	-0.06409770	0.02543623	0.03156082	0.01358130	-0.07466531	0.01968810	0.04492178	-0.01065708	0.02002513	0.02371191	0.03778107	0.01475164	-0.00310487	0.02666225	0.00047792	-0.02070375	-0.01170593	-0.00517777	0.00307018	0.00826129
31	0.30000000	0.05173007	0.12312271	-0.01750347	0.04885626	-0.06404215	0.02537414	0.02820617	0.00866720	-0.07074578	0.00815486	0.04656555	-0.00833305	0.01912599	0.02643335	0.04035508	0.00400613	0.00773192	0.02200261	-0.00518441	-0.02312868	-0.01010395	-0.00456548	-0.00010478	0.00855631
32	0.31000000	0.05099147	0.12385919	-0.01563108	0.04383906	-0.06878500	0.02188056	0.02388723	0.01030410	-0.07377198	-0.00370776	0.05430546	-0.01569020	0.01212907	0.02142779	0.03771077	0.00130044	0.00296054	0.03090902	-0.00362566	-0.01927292	-0.01101326	-0.00531725	-0.00097904	0.00776273
33	0.32000000	0.05186784	0.12109073	-0.01526887	0.04068432	-0.06230884	0.02396621	0.01563322	0.01589840	-0.06833255	-0.00383553	0.06244120	-0.01064344	0.00796090	0.02669681	0.03838635	-0.01795638	-0.00120223	0.03171799	-0.00026685	-0.01926192	-0.00890519	-0.00416725	0.00027971	0.01165764
34	0.33000000	0.05025409	0.11630221	-0.01711730	0.03409588	-0.06437007	0.02568565	0.01563214	0.01115329	-0.06382243	-0.00440412	0.06509196	-0.01191969	-0.00629318	0.03071915	0.03869647	-0.03064304	-0.01094437	0.02396499	-0.00308737	-0.01936376	-0.01106985	-0.00602649	-0.00337123	0.00798907
35	0.34000000	0.05084620	0.11096759	-0.01486111	0.03082699	-0.06538783	0.02537956	0.00842394	0.00894917	-0.06161283	-0.00445769	0.06855066	-0.01647778	-0.01233461	0.02514347	0.03875192	-0.03447433	-0.01166108	0.03326537	0.00019740	-0.01491461	-0.01050475	-0.00367531	-0.00126697	0.00671207
36	0.35000000	0.05071006	0.10370817	-0.01366363	0.02604867	-0.06381406	0.02320772	0.00474695	0.01110813	-0.05698781	0.00236528	0.07199732	-0.02986350	-0.00753652	0.02395322	0.04016026	-0.03151740	-0.00315320	0.03504118	-0.00103437	-0.01624091	-0.00921145	-0.00270833	-0.00400844	0.00454753
37	0.36000000	0.05089426	0.10020349	-0.01261576	0.02375715	-0.05828073	0.02194053	0.01226414	0.00912822	-0.05424905	0.00948016	0.07691058	-0.03109120	0.00192526	0.02389261	0.04363490	-0.02444844	-0.00391199	0.02953517	0.00131914	-0.01556580	-0.00864475	-0.00337797	-0.00082527	0.00808305
38	0.37000000	0.05348202	0.09639516	-0.01234390	0.02229225	-0.05619729	0.01599075	0.01777643	0.00563779	-0.05867963	0.00249078	0.07728656	-0.02450765	0.01482098	0.02386001	0.04688612	-0.00372014	0.00052246	0.02896328	-0.00002430	-0.01221498	-0.00817075	-0.00496390	-0.00081414	0.00715287
